<?xml version="1.0" standalone="no"?>
<!DOCTYPE svg PUBLIC "-//W3C//DTD SVG 20010904//EN"
 "http://www.w3.org/TR/2001/REC-SVG-20010904/DTD/svg10.dtd">
<svg version="1.0" xmlns="http://www.w3.org/2000/svg"
   width="120" height="120" viewBox="0 0 650.000000 650.000000"
  preserveAspectRatio="xMidYMid meet">
  <g transform="translate(0.000000,650.000000) scale(0.100000,-0.100000)"
  fill="#00668A" stroke="none">
  <path d="M2616 6294 c-707 -96 -1294 -555 -1494 -1169 -75 -230 -82 -317 -82
  -1092 l0 -663 725 0 725 0 0 638 c0 632 4 738 36 858 59 227 219 461 420 613
  78 59 213 130 309 162 l70 24 1068 3 1067 3 0 319 0 320 -1372 -1 c-1090 -1
  -1393 -4 -1472 -15z"/>
  <path d="M4010 2471 c0 -411 -4 -678 -11 -727 -13 -98 -51 -218 -96 -309 -149
  -297 -442 -538 -720 -591 -62 -12 -252 -14 -1109 -14 l-1034 0 0 -320 0 -321
  1422 4 1423 3 125 27 c517 115 920 375 1181 765 117 174 194 358 241 577 21
  96 22 127 25 828 l4 727 -725 0 -726 0 0 -649z"/>
  </g>
</svg>
